<?xml version="1.0" encoding="UTF-8" standalone="no"?>
<!DOCTYPE svg PUBLIC "-//W3C//DTD SVG 1.1//EN"
 "http://www.w3.org/Graphics/SVG/1.1/DTD/svg11.dtd">
<!-- Generated by graphviz version 2.43.0 (0)
 -->
<!-- Title: 汽车材料知识 Pages: 1 -->
<svg width="2703pt" height="408pt"
 viewBox="0.00 0.00 2702.50 408.00" xmlns="http://www.w3.org/2000/svg" xmlns:xlink="http://www.w3.org/1999/xlink">
<g id="graph0" class="graph" transform="scale(1 1) rotate(0) translate(4 404)">
<title>汽车材料知识</title>
<polygon fill="#f5f5f5" stroke="transparent" points="-4,4 -4,-404 2698.5,-404 2698.5,4 -4,4"/>
<!-- 根 -->
<g id="node1" class="node">
<title>根</title>
<path fill="#4a90d9" stroke="black" d="M1933,-400C1933,-400 1813,-400 1813,-400 1807,-400 1801,-394 1801,-388 1801,-388 1801,-326 1801,-326 1801,-320 1807,-314 1813,-314 1813,-314 1933,-314 1933,-314 1939,-314 1945,-320 1945,-326 1945,-326 1945,-388 1945,-388 1945,-394 1939,-400 1933,-400"/>
<text text-anchor="middle" x="1873" y="-362.2" font-family="Microsoft YaHei" font-size="16.00" fill="white">🚗</text>
<text text-anchor="middle" x="1873" y="-344.2" font-family="Microsoft YaHei" font-size="16.00" fill="white">汽车材料知识</text>
</g>
<!-- 塑料 -->
<g id="node2" class="node">
<title>塑料</title>
<path fill="#3498db" stroke="black" d="M731,-256C731,-256 641,-256 641,-256 635,-256 629,-250 629,-244 629,-244 629,-232 629,-232 629,-226 635,-220 641,-220 641,-220 731,-220 731,-220 737,-220 743,-226 743,-232 743,-232 743,-244 743,-244 743,-250 737,-256 731,-256"/>
<text text-anchor="middle" x="686" y="-241.6" font-family="Microsoft YaHei" font-size="13.00" fill="white">🔷 塑料材料</text>
<text text-anchor="middle" x="686" y="-227.6" font-family="Microsoft YaHei" font-size="13.00" fill="white">(250&#45;300kg/车)</text>
</g>
<!-- 根&#45;&gt;塑料 -->
<g id="edge1" class="edge">
<title>根&#45;&gt;塑料</title>
<path fill="none" stroke="#666666" d="M1800.98,-348.9C1587.59,-327.87 960.68,-266.08 753.4,-245.64"/>
<polygon fill="#666666" stroke="#666666" points="753.56,-242.14 743.26,-244.64 752.87,-249.11 753.56,-242.14"/>
</g>
<!-- 金属 -->
<g id="node3" class="node">
<title>金属</title>
<path fill="#e67e22" stroke="black" d="M1727.5,-256C1727.5,-256 1662.5,-256 1662.5,-256 1656.5,-256 1650.5,-250 1650.5,-244 1650.5,-244 1650.5,-232 1650.5,-232 1650.5,-226 1656.5,-220 1662.5,-220 1662.5,-220 1727.5,-220 1727.5,-220 1733.5,-220 1739.5,-226 1739.5,-232 1739.5,-232 1739.5,-244 1739.5,-244 1739.5,-250 1733.5,-256 1727.5,-256"/>
<text text-anchor="middle" x="1695" y="-241.6" font-family="Microsoft YaHei" font-size="13.00" fill="white">🔶 金属材料</text>
<text text-anchor="middle" x="1695" y="-227.6" font-family="Microsoft YaHei" font-size="13.00" fill="white">(车身结构)</text>
</g>
<!-- 根&#45;&gt;金属 -->
<g id="edge2" class="edge">
<title>根&#45;&gt;金属</title>
<path fill="none" stroke="#666666" d="M1808.99,-313.93C1782.24,-296.34 1752.21,-276.61 1729.7,-261.81"/>
<polygon fill="#666666" stroke="#666666" points="1731.43,-258.76 1721.15,-256.19 1727.58,-264.61 1731.43,-258.76"/>
</g>
<!-- 其他 -->
<g id="node4" class="node">
<title>其他</title>
<path fill="#27ae60" stroke="black" d="M2147.5,-256C2147.5,-256 2058.5,-256 2058.5,-256 2052.5,-256 2046.5,-250 2046.5,-244 2046.5,-244 2046.5,-232 2046.5,-232 2046.5,-226 2052.5,-220 2058.5,-220 2058.5,-220 2147.5,-220 2147.5,-220 2153.5,-220 2159.5,-226 2159.5,-232 2159.5,-232 2159.5,-244 2159.5,-244 2159.5,-250 2153.5,-256 2147.5,-256"/>
<text text-anchor="middle" x="2103" y="-241.6" font-family="Microsoft YaHei" font-size="13.00" fill="white">🟢 其他材料</text>
<text text-anchor="middle" x="2103" y="-227.6" font-family="Microsoft YaHei" font-size="13.00" fill="white">(密封/涂料/玻璃)</text>
</g>
<!-- 根&#45;&gt;其他 -->
<g id="edge3" class="edge">
<title>根&#45;&gt;其他</title>
<path fill="none" stroke="#666666" d="M1945.14,-319.3C1982.91,-300.09 2027.88,-277.21 2060.14,-260.8"/>
<polygon fill="#666666" stroke="#666666" points="2061.98,-263.79 2069.3,-256.14 2058.8,-257.56 2061.98,-263.79"/>
</g>
<!-- 工艺 -->
<g id="node5" class="node">
<title>工艺</title>
<path fill="#e74c3c" stroke="black" d="M2544.5,-256C2544.5,-256 2455.5,-256 2455.5,-256 2449.5,-256 2443.5,-250 2443.5,-244 2443.5,-244 2443.5,-232 2443.5,-232 2443.5,-226 2449.5,-220 2455.5,-220 2455.5,-220 2544.5,-220 2544.5,-220 2550.5,-220 2556.5,-226 2556.5,-232 2556.5,-232 2556.5,-244 2556.5,-244 2556.5,-250 2550.5,-256 2544.5,-256"/>
<text text-anchor="middle" x="2500" y="-241.6" font-family="Microsoft YaHei" font-size="13.00" fill="white">🔴 应用与工艺</text>
<text text-anchor="middle" x="2500" y="-227.6" font-family="Microsoft YaHei" font-size="13.00" fill="white">(选型/成型/处理)</text>
</g>
<!-- 根&#45;&gt;工艺 -->
<g id="edge4" class="edge">
<title>根&#45;&gt;工艺</title>
<path fill="none" stroke="#666666" d="M1945.23,-342.52C2067.73,-319.66 2314.45,-273.62 2433.18,-251.47"/>
<polygon fill="#666666" stroke="#666666" points="2434.04,-254.87 2443.23,-249.59 2432.75,-247.99 2434.04,-254.87"/>
</g>
<!-- 通用塑料 -->
<g id="node6" class="node">
<title>通用塑料</title>
<path fill="#aed6f1" stroke="black" d="M213,-154C213,-154 155,-154 155,-154 149,-154 143,-148 143,-142 143,-142 143,-130 143,-130 143,-124 149,-118 155,-118 155,-118 213,-118 213,-118 219,-118 225,-124 225,-130 225,-130 225,-142 225,-142 225,-148 219,-154 213,-154"/>
<text text-anchor="middle" x="184" y="-133.2" font-family="Microsoft YaHei" font-size="11.00">📦 通用塑料</text>
</g>
<!-- 塑料&#45;&gt;通用塑料 -->
<g id="edge5" class="edge">
<title>塑料&#45;&gt;通用塑料</title>
<path fill="none" stroke="#666666" d="M628.9,-225.63C530.22,-205.97 329.3,-165.94 235.01,-147.16"/>
<polygon fill="#666666" stroke="#666666" points="235.63,-143.72 225.14,-145.19 234.26,-150.58 235.63,-143.72"/>
</g>
<!-- 工程塑料 -->
<g id="node7" class="node">
<title>工程塑料</title>
<path fill="#aed6f1" stroke="black" d="M441,-154C441,-154 391,-154 391,-154 385,-154 379,-148 379,-142 379,-142 379,-130 379,-130 379,-124 385,-118 391,-118 391,-118 441,-118 441,-118 447,-118 453,-124 453,-130 453,-130 453,-142 453,-142 453,-148 447,-154 441,-154"/>
<text text-anchor="middle" x="416" y="-133.2" font-family="Microsoft YaHei" font-size="11.00">⚙️ 工程塑料</text>
</g>
<!-- 塑料&#45;&gt;工程塑料 -->
<g id="edge6" class="edge">
<title>塑料&#45;&gt;工程塑料</title>
<path fill="none" stroke="#666666" d="M639.89,-219.92C590.47,-201.62 512.44,-172.72 462.77,-154.32"/>
<polygon fill="#666666" stroke="#666666" points="463.82,-150.98 453.23,-150.79 461.39,-157.54 463.82,-150.98"/>
</g>
<!-- 高性能塑料 -->
<g id="node8" class="node">
<title>高性能塑料</title>
<path fill="#aed6f1" stroke="black" d="M661.5,-154C661.5,-154 592.5,-154 592.5,-154 586.5,-154 580.5,-148 580.5,-142 580.5,-142 580.5,-130 580.5,-130 580.5,-124 586.5,-118 592.5,-118 592.5,-118 661.5,-118 661.5,-118 667.5,-118 673.5,-124 673.5,-130 673.5,-130 673.5,-142 673.5,-142 673.5,-148 667.5,-154 661.5,-154"/>
<text text-anchor="middle" x="627" y="-133.2" font-family="Microsoft YaHei" font-size="11.00">🚀 高性能塑料</text>
</g>
<!-- 塑料&#45;&gt;高性能塑料 -->
<g id="edge7" class="edge">
<title>塑料&#45;&gt;高性能塑料</title>
<path fill="none" stroke="#666666" d="M675.72,-219.58C666.5,-203.95 652.84,-180.8 642.33,-162.98"/>
<polygon fill="#666666" stroke="#666666" points="645.26,-161.05 637.16,-154.22 639.23,-164.61 645.26,-161.05"/>
</g>
<!-- 复合材料 -->
<g id="node9" class="node">
<title>复合材料</title>
<path fill="#aed6f1" stroke="black" d="M773,-154C773,-154 715,-154 715,-154 709,-154 703,-148 703,-142 703,-142 703,-130 703,-130 703,-124 709,-118 715,-118 715,-118 773,-118 773,-118 779,-118 785,-124 785,-130 785,-130 785,-142 785,-142 785,-148 779,-154 773,-154"/>
<text text-anchor="middle" x="744" y="-133.2" font-family="Microsoft YaHei" font-size="11.00">🧬 复合材料</text>
</g>
<!-- 塑料&#45;&gt;复合材料 -->
<g id="edge8" class="edge">
<title>塑料&#45;&gt;复合材料</title>
<path fill="none" stroke="#666666" d="M696.1,-219.58C705.17,-203.95 718.6,-180.8 728.93,-162.98"/>
<polygon fill="#666666" stroke="#666666" points="732.02,-164.63 734.01,-154.22 725.97,-161.11 732.02,-164.63"/>
</g>
<!-- 可回收 -->
<g id="node10" class="node">
<title>可回收</title>
<path fill="#aed6f1" stroke="black" d="M888,-154C888,-154 826,-154 826,-154 820,-154 814,-148 814,-142 814,-142 814,-130 814,-130 814,-124 820,-118 826,-118 826,-118 888,-118 888,-118 894,-118 900,-124 900,-130 900,-130 900,-142 900,-142 900,-148 894,-154 888,-154"/>
<text text-anchor="middle" x="857" y="-133.2" font-family="Microsoft YaHei" font-size="11.00">♻️ 可回收材料</text>
</g>
<!-- 塑料&#45;&gt;可回收 -->
<g id="edge9" class="edge">
<title>塑料&#45;&gt;可回收</title>
<path fill="none" stroke="#666666" d="M715.4,-219.81C743.99,-203.09 787.57,-177.6 818.83,-159.32"/>
<polygon fill="#666666" stroke="#666666" points="820.84,-162.2 827.7,-154.13 817.3,-156.16 820.84,-162.2"/>
</g>
<!-- 高强度钢 -->
<g id="node19" class="node">
<title>高强度钢</title>
<path fill="#f5cba7" stroke="black" d="M1148,-154C1148,-154 1098,-154 1098,-154 1092,-154 1086,-148 1086,-142 1086,-142 1086,-130 1086,-130 1086,-124 1092,-118 1098,-118 1098,-118 1148,-118 1148,-118 1154,-118 1160,-124 1160,-130 1160,-130 1160,-142 1160,-142 1160,-148 1154,-154 1148,-154"/>
<text text-anchor="middle" x="1123" y="-133.2" font-family="Microsoft YaHei" font-size="11.00">⚙️ 高强度钢</text>
</g>
<!-- 金属&#45;&gt;高强度钢 -->
<g id="edge18" class="edge">
<title>金属&#45;&gt;高强度钢</title>
<path fill="none" stroke="#666666" d="M1650.12,-229.15C1543.98,-210.6 1278.35,-164.16 1170.07,-145.23"/>
<polygon fill="#666666" stroke="#666666" points="1170.54,-141.76 1160.09,-143.48 1169.34,-148.65 1170.54,-141.76"/>
</g>
<!-- 铝合金 -->
<g id="node20" class="node">
<title>铝合金</title>
<path fill="#f5cba7" stroke="black" d="M1509.5,-154C1509.5,-154 1462.5,-154 1462.5,-154 1456.5,-154 1450.5,-148 1450.5,-142 1450.5,-142 1450.5,-130 1450.5,-130 1450.5,-124 1456.5,-118 1462.5,-118 1462.5,-118 1509.5,-118 1509.5,-118 1515.5,-118 1521.5,-124 1521.5,-130 1521.5,-130 1521.5,-142 1521.5,-142 1521.5,-148 1515.5,-154 1509.5,-154"/>
<text text-anchor="middle" x="1486" y="-133.2" font-family="Microsoft YaHei" font-size="11.00">🔧 铝合金</text>
</g>
<!-- 金属&#45;&gt;铝合金 -->
<g id="edge19" class="edge">
<title>金属&#45;&gt;铝合金</title>
<path fill="none" stroke="#666666" d="M1659.07,-219.81C1623.67,-202.87 1569.48,-176.94 1531.18,-158.62"/>
<polygon fill="#666666" stroke="#666666" points="1532.34,-155.29 1521.81,-154.13 1529.32,-161.61 1532.34,-155.29"/>
</g>
<!-- 镁合金 -->
<g id="node21" class="node">
<title>镁合金</title>
<path fill="#f5cba7" stroke="black" d="M1713.5,-154C1713.5,-154 1676.5,-154 1676.5,-154 1670.5,-154 1664.5,-148 1664.5,-142 1664.5,-142 1664.5,-130 1664.5,-130 1664.5,-124 1670.5,-118 1676.5,-118 1676.5,-118 1713.5,-118 1713.5,-118 1719.5,-118 1725.5,-124 1725.5,-130 1725.5,-130 1725.5,-142 1725.5,-142 1725.5,-148 1719.5,-154 1713.5,-154"/>
<text text-anchor="middle" x="1695" y="-133.2" font-family="Microsoft YaHei" font-size="11.00">⚡ 镁合金</text>
</g>
<!-- 金属&#45;&gt;镁合金 -->
<g id="edge20" class="edge">
<title>金属&#45;&gt;镁合金</title>
<path fill="none" stroke="#666666" d="M1695,-219.58C1695,-204.38 1695,-182.07 1695,-164.46"/>
<polygon fill="#666666" stroke="#666666" points="1698.5,-164.22 1695,-154.22 1691.5,-164.22 1698.5,-164.22"/>
</g>
<!-- 有色金属 -->
<g id="node22" class="node">
<title>有色金属</title>
<path fill="#f5cba7" stroke="black" d="M1898,-154C1898,-154 1818,-154 1818,-154 1812,-154 1806,-148 1806,-142 1806,-142 1806,-130 1806,-130 1806,-124 1812,-118 1818,-118 1818,-118 1898,-118 1898,-118 1904,-118 1910,-124 1910,-130 1910,-130 1910,-142 1910,-142 1910,-148 1904,-154 1898,-154"/>
<text text-anchor="middle" x="1858" y="-133.2" font-family="Microsoft YaHei" font-size="11.00">💎 其他有色金属</text>
</g>
<!-- 金属&#45;&gt;有色金属 -->
<g id="edge21" class="edge">
<title>金属&#45;&gt;有色金属</title>
<path fill="none" stroke="#666666" d="M1723.02,-219.81C1750.16,-203.16 1791.46,-177.82 1821.23,-159.56"/>
<polygon fill="#666666" stroke="#666666" points="1823.38,-162.35 1830.07,-154.13 1819.72,-156.38 1823.38,-162.35"/>
</g>
<!-- 橡胶 -->
<g id="node34" class="node">
<title>橡胶</title>
<path fill="#a9dfbf" stroke="black" d="M2020.5,-154C2020.5,-154 1951.5,-154 1951.5,-154 1945.5,-154 1939.5,-148 1939.5,-142 1939.5,-142 1939.5,-130 1939.5,-130 1939.5,-124 1945.5,-118 1951.5,-118 1951.5,-118 2020.5,-118 2020.5,-118 2026.5,-118 2032.5,-124 2032.5,-130 2032.5,-130 2032.5,-142 2032.5,-142 2032.5,-148 2026.5,-154 2020.5,-154"/>
<text text-anchor="middle" x="1986" y="-133.2" font-family="Microsoft YaHei" font-size="11.00">🔘 橡胶弹性体</text>
</g>
<!-- 其他&#45;&gt;橡胶 -->
<g id="edge33" class="edge">
<title>其他&#45;&gt;橡胶</title>
<path fill="none" stroke="#666666" d="M2082.89,-219.81C2063.88,-203.57 2035.21,-179.06 2013.98,-160.91"/>
<polygon fill="#666666" stroke="#666666" points="2016.12,-158.14 2006.24,-154.3 2011.57,-163.46 2016.12,-158.14"/>
</g>
<!-- 涂料 -->
<g id="node35" class="node">
<title>涂料</title>
<path fill="#a9dfbf" stroke="black" d="M2132,-154C2132,-154 2074,-154 2074,-154 2068,-154 2062,-148 2062,-142 2062,-142 2062,-130 2062,-130 2062,-124 2068,-118 2074,-118 2074,-118 2132,-118 2132,-118 2138,-118 2144,-124 2144,-130 2144,-130 2144,-142 2144,-142 2144,-148 2138,-154 2132,-154"/>
<text text-anchor="middle" x="2103" y="-133.2" font-family="Microsoft YaHei" font-size="11.00">🎨 涂料涂层</text>
</g>
<!-- 其他&#45;&gt;涂料 -->
<g id="edge34" class="edge">
<title>其他&#45;&gt;涂料</title>
<path fill="none" stroke="#666666" d="M2103,-219.58C2103,-204.38 2103,-182.07 2103,-164.46"/>
<polygon fill="#666666" stroke="#666666" points="2106.5,-164.22 2103,-154.22 2099.5,-164.22 2106.5,-164.22"/>
</g>
<!-- 胶粘剂 -->
<g id="node36" class="node">
<title>胶粘剂</title>
<path fill="#a9dfbf" stroke="black" d="M2243,-154C2243,-154 2185,-154 2185,-154 2179,-154 2173,-148 2173,-142 2173,-142 2173,-130 2173,-130 2173,-124 2179,-118 2185,-118 2185,-118 2243,-118 2243,-118 2249,-118 2255,-124 2255,-130 2255,-130 2255,-142 2255,-142 2255,-148 2249,-154 2243,-154"/>
<text text-anchor="middle" x="2214" y="-133.2" font-family="Microsoft YaHei" font-size="11.00">🧪 胶粘密封</text>
</g>
<!-- 其他&#45;&gt;胶粘剂 -->
<g id="edge35" class="edge">
<title>其他&#45;&gt;胶粘剂</title>
<path fill="none" stroke="#666666" d="M2122.08,-219.81C2140.03,-203.64 2167.08,-179.27 2187.19,-161.15"/>
<polygon fill="#666666" stroke="#666666" points="2189.71,-163.59 2194.8,-154.3 2185.02,-158.39 2189.71,-163.59"/>
</g>
<!-- 玻璃 -->
<g id="node37" class="node">
<title>玻璃</title>
<path fill="#a9dfbf" stroke="black" d="M2354,-154C2354,-154 2296,-154 2296,-154 2290,-154 2284,-148 2284,-142 2284,-142 2284,-130 2284,-130 2284,-124 2290,-118 2296,-118 2296,-118 2354,-118 2354,-118 2360,-118 2366,-124 2366,-130 2366,-130 2366,-142 2366,-142 2366,-148 2360,-154 2354,-154"/>
<text text-anchor="middle" x="2325" y="-133.2" font-family="Microsoft YaHei" font-size="11.00">🔍 玻璃陶瓷</text>
</g>
<!-- 其他&#45;&gt;玻璃 -->
<g id="edge36" class="edge">
<title>其他&#45;&gt;玻璃</title>
<path fill="none" stroke="#666666" d="M2140.91,-219.92C2178.82,-202.84 2237.22,-176.54 2278.04,-158.15"/>
<polygon fill="#666666" stroke="#666666" points="2279.57,-161.3 2287.25,-154.01 2276.69,-154.92 2279.57,-161.3"/>
</g>
<!-- 选型 -->
<g id="node38" class="node">
<title>选型</title>
<path fill="#f5b7b1" stroke="black" d="M2478.5,-162C2478.5,-162 2407.5,-162 2407.5,-162 2401.5,-162 2395.5,-156 2395.5,-150 2395.5,-150 2395.5,-122 2395.5,-122 2395.5,-116 2401.5,-110 2407.5,-110 2407.5,-110 2478.5,-110 2478.5,-110 2484.5,-110 2490.5,-116 2490.5,-122 2490.5,-122 2490.5,-150 2490.5,-150 2490.5,-156 2484.5,-162 2478.5,-162"/>
<text text-anchor="middle" x="2443" y="-150" font-family="Microsoft YaHei" font-size="10.00">📋 材料选型指南</text>
<text text-anchor="middle" x="2443" y="-139" font-family="Microsoft YaHei" font-size="10.00">• 性能匹配</text>
<text text-anchor="middle" x="2443" y="-128" font-family="Microsoft YaHei" font-size="10.00">• 成本分析</text>
<text text-anchor="middle" x="2443" y="-117" font-family="Microsoft YaHei" font-size="10.00">• 供应链评估</text>
</g>
<!-- 工艺&#45;&gt;选型 -->
<g id="edge37" class="edge">
<title>工艺&#45;&gt;选型</title>
<path fill="none" stroke="#666666" d="M2490.07,-219.58C2482.43,-206.17 2471.63,-187.23 2462.3,-170.86"/>
<polygon fill="#666666" stroke="#666666" points="2465.29,-169.04 2457.3,-162.09 2459.21,-172.51 2465.29,-169.04"/>
</g>
<!-- 成型 -->
<g id="node39" class="node">
<title>成型</title>
<path fill="#f5b7b1" stroke="black" d="M2582.5,-156.5C2582.5,-156.5 2531.5,-156.5 2531.5,-156.5 2525.5,-156.5 2519.5,-150.5 2519.5,-144.5 2519.5,-144.5 2519.5,-127.5 2519.5,-127.5 2519.5,-121.5 2525.5,-115.5 2531.5,-115.5 2531.5,-115.5 2582.5,-115.5 2582.5,-115.5 2588.5,-115.5 2594.5,-121.5 2594.5,-127.5 2594.5,-127.5 2594.5,-144.5 2594.5,-144.5 2594.5,-150.5 2588.5,-156.5 2582.5,-156.5"/>
<text text-anchor="middle" x="2557" y="-144.5" font-family="Microsoft YaHei" font-size="10.00">🏭 成型工艺</text>
<text text-anchor="middle" x="2557" y="-133.5" font-family="Microsoft YaHei" font-size="10.00">• 注塑/压铸</text>
<text text-anchor="middle" x="2557" y="-122.5" font-family="Microsoft YaHei" font-size="10.00">• 冲压/锻造</text>
</g>
<!-- 工艺&#45;&gt;成型 -->
<g id="edge38" class="edge">
<title>工艺&#45;&gt;成型</title>
<path fill="none" stroke="#666666" d="M2509.93,-219.58C2518.38,-204.76 2530.69,-183.16 2540.6,-165.77"/>
<polygon fill="#666666" stroke="#666666" points="2543.91,-167.04 2545.82,-156.62 2537.83,-163.57 2543.91,-167.04"/>
</g>
<!-- 表面处理 -->
<g id="node40" class="node">
<title>表面处理</title>
<path fill="#f5b7b1" stroke="black" d="M2682.5,-156.5C2682.5,-156.5 2635.5,-156.5 2635.5,-156.5 2629.5,-156.5 2623.5,-150.5 2623.5,-144.5 2623.5,-144.5 2623.5,-127.5 2623.5,-127.5 2623.5,-121.5 2629.5,-115.5 2635.5,-115.5 2635.5,-115.5 2682.5,-115.5 2682.5,-115.5 2688.5,-115.5 2694.5,-121.5 2694.5,-127.5 2694.5,-127.5 2694.5,-144.5 2694.5,-144.5 2694.5,-150.5 2688.5,-156.5 2682.5,-156.5"/>
<text text-anchor="middle" x="2659" y="-144.5" font-family="Microsoft YaHei" font-size="10.00">✨ 表面处理</text>
<text text-anchor="middle" x="2659" y="-133.5" font-family="Microsoft YaHei" font-size="10.00">• 涂装/电镀</text>
<text text-anchor="middle" x="2659" y="-122.5" font-family="Microsoft YaHei" font-size="10.00">• 阳极氧化</text>
</g>
<!-- 工艺&#45;&gt;表面处理 -->
<g id="edge39" class="edge">
<title>工艺&#45;&gt;表面处理</title>
<path fill="none" stroke="#666666" d="M2527.33,-219.81C2552.68,-203.87 2590.69,-179.96 2619.37,-161.93"/>
<polygon fill="#666666" stroke="#666666" points="2621.34,-164.82 2627.94,-156.53 2617.62,-158.89 2621.34,-164.82"/>
</g>
<!-- PP -->
<g id="node11" class="node">
<title>PP</title>
<path fill="#d6eaf8" stroke="black" d="M100,-52C100,-52 12,-52 12,-52 6,-52 0,-46 0,-40 0,-40 0,-12 0,-12 0,-6 6,0 12,0 12,0 100,0 100,0 106,0 112,-6 112,-12 112,-12 112,-40 112,-40 112,-46 106,-52 100,-52"/>
<text text-anchor="middle" x="56" y="-40" font-family="Microsoft YaHei" font-size="10.00">PP及其改性</text>
<text text-anchor="middle" x="56" y="-29" font-family="Microsoft YaHei" font-size="10.00">• 保险杠(PP+EPDM)</text>
<text text-anchor="middle" x="56" y="-18" font-family="Microsoft YaHei" font-size="10.00">• 仪表板(PP+滑石粉)</text>
<text text-anchor="middle" x="56" y="-7" font-family="Microsoft YaHei" font-size="10.00">• 结构件(LFT&#45;PP)</text>
</g>
<!-- 通用塑料&#45;&gt;PP -->
<g id="edge10" class="edge">
<title>通用塑料&#45;&gt;PP</title>
<path fill="none" stroke="#666666" d="M163.72,-117.89C144.93,-102.03 116.5,-78.05 93.57,-58.7"/>
<polygon fill="#666666" stroke="#666666" points="95.61,-55.84 85.71,-52.07 91.1,-61.19 95.61,-55.84"/>
</g>
<!-- ABS -->
<g id="node12" class="node">
<title>ABS</title>
<path fill="#d6eaf8" stroke="black" d="M215,-52C215,-52 153,-52 153,-52 147,-52 141,-46 141,-40 141,-40 141,-12 141,-12 141,-6 147,0 153,0 153,0 215,0 215,0 221,0 227,-6 227,-12 227,-12 227,-40 227,-40 227,-46 221,-52 215,-52"/>
<text text-anchor="middle" x="184" y="-40" font-family="Microsoft YaHei" font-size="10.00">ABS/PC/PMMA</text>
<text text-anchor="middle" x="184" y="-29" font-family="Microsoft YaHei" font-size="10.00">• 仪表板面板</text>
<text text-anchor="middle" x="184" y="-18" font-family="Microsoft YaHei" font-size="10.00">• 车灯壳体</text>
<text text-anchor="middle" x="184" y="-7" font-family="Microsoft YaHei" font-size="10.00">• 导光条</text>
</g>
<!-- 通用塑料&#45;&gt;ABS -->
<g id="edge11" class="edge">
<title>通用塑料&#45;&gt;ABS</title>
<path fill="none" stroke="#666666" d="M184,-117.65C184,-102.82 184,-81.03 184,-62.52"/>
<polygon fill="#666666" stroke="#666666" points="187.5,-62.36 184,-52.36 180.5,-62.36 187.5,-62.36"/>
</g>
<!-- PA -->
<g id="node13" class="node">
<title>PA</title>
<path fill="#d6eaf8" stroke="black" d="M333.5,-52C333.5,-52 268.5,-52 268.5,-52 262.5,-52 256.5,-46 256.5,-40 256.5,-40 256.5,-12 256.5,-12 256.5,-6 262.5,0 268.5,0 268.5,0 333.5,0 333.5,0 339.5,0 345.5,-6 345.5,-12 345.5,-12 345.5,-40 345.5,-40 345.5,-46 339.5,-52 333.5,-52"/>
<text text-anchor="middle" x="301" y="-40" font-family="Microsoft YaHei" font-size="10.00">聚酰胺PA</text>
<text text-anchor="middle" x="301" y="-29" font-family="Microsoft YaHei" font-size="10.00">• PA6齿轮</text>
<text text-anchor="middle" x="301" y="-18" font-family="Microsoft YaHei" font-size="10.00">• PA66连接器</text>
<text text-anchor="middle" x="301" y="-7" font-family="Microsoft YaHei" font-size="10.00">• PA46耐高温件</text>
</g>
<!-- 工程塑料&#45;&gt;PA -->
<g id="edge12" class="edge">
<title>工程塑料&#45;&gt;PA</title>
<path fill="none" stroke="#666666" d="M397.78,-117.89C380.97,-102.1 355.58,-78.26 335.03,-58.95"/>
<polygon fill="#666666" stroke="#666666" points="337.38,-56.37 327.7,-52.07 332.59,-61.47 337.38,-56.37"/>
</g>
<!-- PBT -->
<g id="node14" class="node">
<title>PBT</title>
<path fill="#d6eaf8" stroke="black" d="M445,-46.5C445,-46.5 387,-46.5 387,-46.5 381,-46.5 375,-40.5 375,-34.5 375,-34.5 375,-17.5 375,-17.5 375,-11.5 381,-5.5 387,-5.5 387,-5.5 445,-5.5 445,-5.5 451,-5.5 457,-11.5 457,-17.5 457,-17.5 457,-34.5 457,-34.5 457,-40.5 451,-46.5 445,-46.5"/>
<text text-anchor="middle" x="416" y="-34.5" font-family="Microsoft YaHei" font-size="10.00">PBT/PET/POM</text>
<text text-anchor="middle" x="416" y="-23.5" font-family="Microsoft YaHei" font-size="10.00">• 连接器</text>
<text text-anchor="middle" x="416" y="-12.5" font-family="Microsoft YaHei" font-size="10.00">• 齿轮/门锁</text>
</g>
<!-- 工程塑料&#45;&gt;PBT -->
<g id="edge13" class="edge">
<title>工程塑料&#45;&gt;PBT</title>
<path fill="none" stroke="#666666" d="M416,-117.65C416,-101.25 416,-76.31 416,-56.73"/>
<polygon fill="#666666" stroke="#666666" points="419.5,-56.5 416,-46.5 412.5,-56.5 419.5,-56.5"/>
</g>
<!-- PPS -->
<g id="node15" class="node">
<title>PPS</title>
<path fill="#d6eaf8" stroke="black" d="M558,-46.5C558,-46.5 498,-46.5 498,-46.5 492,-46.5 486,-40.5 486,-34.5 486,-34.5 486,-17.5 486,-17.5 486,-11.5 492,-5.5 498,-5.5 498,-5.5 558,-5.5 558,-5.5 564,-5.5 570,-11.5 570,-17.5 570,-17.5 570,-34.5 570,-34.5 570,-40.5 564,-46.5 558,-46.5"/>
<text text-anchor="middle" x="528" y="-34.5" font-family="Microsoft YaHei" font-size="10.00">PPS/PEEK</text>
<text text-anchor="middle" x="528" y="-23.5" font-family="Microsoft YaHei" font-size="10.00">• 涡轮增压管路</text>
<text text-anchor="middle" x="528" y="-12.5" font-family="Microsoft YaHei" font-size="10.00">• 轴承/密封件</text>
</g>
<!-- 高性能塑料&#45;&gt;PPS -->
<g id="edge14" class="edge">
<title>高性能塑料&#45;&gt;PPS</title>
<path fill="none" stroke="#666666" d="M611.09,-117.65C595.36,-100.49 571.06,-73.98 552.8,-54.05"/>
<polygon fill="#666666" stroke="#666666" points="555.21,-51.51 545.88,-46.5 550.05,-56.24 555.21,-51.51"/>
</g>
<!-- 高温尼龙 -->
<g id="node16" class="node">
<title>高温尼龙</title>
<path fill="#d6eaf8" stroke="black" d="M661,-46.5C661,-46.5 611,-46.5 611,-46.5 605,-46.5 599,-40.5 599,-34.5 599,-34.5 599,-17.5 599,-17.5 599,-11.5 605,-5.5 611,-5.5 611,-5.5 661,-5.5 661,-5.5 667,-5.5 673,-11.5 673,-17.5 673,-17.5 673,-34.5 673,-34.5 673,-40.5 667,-46.5 661,-46.5"/>
<text text-anchor="middle" x="636" y="-34.5" font-family="Microsoft YaHei" font-size="10.00">PPA/LCP</text>
<text text-anchor="middle" x="636" y="-23.5" font-family="Microsoft YaHei" font-size="10.00">• 发动机周边</text>
<text text-anchor="middle" x="636" y="-12.5" font-family="Microsoft YaHei" font-size="10.00">• 精密连接器</text>
</g>
<!-- 高性能塑料&#45;&gt;高温尼龙 -->
<g id="edge15" class="edge">
<title>高性能塑料&#45;&gt;高温尼龙</title>
<path fill="none" stroke="#666666" d="M628.45,-117.65C629.81,-101.25 631.89,-76.31 633.52,-56.73"/>
<polygon fill="#666666" stroke="#666666" points="637.03,-56.76 634.37,-46.5 630.06,-56.18 637.03,-56.76"/>
</g>
<!-- LFT -->
<g id="node17" class="node">
<title>LFT</title>
<path fill="#d6eaf8" stroke="black" d="M774,-46.5C774,-46.5 714,-46.5 714,-46.5 708,-46.5 702,-40.5 702,-34.5 702,-34.5 702,-17.5 702,-17.5 702,-11.5 708,-5.5 714,-5.5 714,-5.5 774,-5.5 774,-5.5 780,-5.5 786,-11.5 786,-17.5 786,-17.5 786,-34.5 786,-34.5 786,-40.5 780,-46.5 774,-46.5"/>
<text text-anchor="middle" x="744" y="-34.5" font-family="Microsoft YaHei" font-size="10.00">LFT/CFRTP</text>
<text text-anchor="middle" x="744" y="-23.5" font-family="Microsoft YaHei" font-size="10.00">• 前端模块</text>
<text text-anchor="middle" x="744" y="-12.5" font-family="Microsoft YaHei" font-size="10.00">• 碳纤维外观件</text>
</g>
<!-- 复合材料&#45;&gt;LFT -->
<g id="edge16" class="edge">
<title>复合材料&#45;&gt;LFT</title>
<path fill="none" stroke="#666666" d="M744,-117.65C744,-101.25 744,-76.31 744,-56.73"/>
<polygon fill="#666666" stroke="#666666" points="747.5,-56.5 744,-46.5 740.5,-56.5 747.5,-56.5"/>
</g>
<!-- GMT -->
<g id="node18" class="node">
<title>GMT</title>
<path fill="#d6eaf8" stroke="black" d="M871,-46.5C871,-46.5 827,-46.5 827,-46.5 821,-46.5 815,-40.5 815,-34.5 815,-34.5 815,-17.5 815,-17.5 815,-11.5 821,-5.5 827,-5.5 827,-5.5 871,-5.5 871,-5.5 877,-5.5 883,-11.5 883,-17.5 883,-17.5 883,-34.5 883,-34.5 883,-40.5 877,-46.5 871,-46.5"/>
<text text-anchor="middle" x="849" y="-34.5" font-family="Microsoft YaHei" font-size="10.00">GMT玻纤毡</text>
<text text-anchor="middle" x="849" y="-23.5" font-family="Microsoft YaHei" font-size="10.00">• 底护板</text>
<text text-anchor="middle" x="849" y="-12.5" font-family="Microsoft YaHei" font-size="10.00">• 座椅骨架</text>
</g>
<!-- 复合材料&#45;&gt;GMT -->
<g id="edge17" class="edge">
<title>复合材料&#45;&gt;GMT</title>
<path fill="none" stroke="#666666" d="M760.87,-117.65C777.63,-100.41 803.56,-73.74 822.96,-53.79"/>
<polygon fill="#666666" stroke="#666666" points="825.58,-56.11 830.04,-46.5 820.56,-51.23 825.58,-56.11"/>
</g>
<!-- AHSS -->
<g id="node23" class="node">
<title>AHSS</title>
<path fill="#fadbd8" stroke="black" d="M992,-52C992,-52 924,-52 924,-52 918,-52 912,-46 912,-40 912,-40 912,-12 912,-12 912,-6 918,0 924,0 924,0 992,0 992,0 998,0 1004,-6 1004,-12 1004,-12 1004,-40 1004,-40 1004,-46 998,-52 992,-52"/>
<text text-anchor="middle" x="958" y="-40" font-family="Microsoft YaHei" font-size="10.00">先进高强钢AHSS</text>
<text text-anchor="middle" x="958" y="-29" font-family="Microsoft YaHei" font-size="10.00">• 双相钢DP</text>
<text text-anchor="middle" x="958" y="-18" font-family="Microsoft YaHei" font-size="10.00">• TRIP钢</text>
<text text-anchor="middle" x="958" y="-7" font-family="Microsoft YaHei" font-size="10.00">• 复相钢CP</text>
</g>
<!-- 高强度钢&#45;&gt;AHSS -->
<g id="edge22" class="edge">
<title>高强度钢&#45;&gt;AHSS</title>
<path fill="none" stroke="#666666" d="M1096.86,-117.89C1072.21,-101.75 1034.71,-77.21 1004.89,-57.69"/>
<polygon fill="#666666" stroke="#666666" points="1006.59,-54.62 996.3,-52.07 1002.75,-60.48 1006.59,-54.62"/>
</g>
<!-- PHSS -->
<g id="node24" class="node">
<title>PHSS</title>
<path fill="#fadbd8" stroke="black" d="M1102.5,-52C1102.5,-52 1045.5,-52 1045.5,-52 1039.5,-52 1033.5,-46 1033.5,-40 1033.5,-40 1033.5,-12 1033.5,-12 1033.5,-6 1039.5,0 1045.5,0 1045.5,0 1102.5,0 1102.5,0 1108.5,0 1114.5,-6 1114.5,-12 1114.5,-12 1114.5,-40 1114.5,-40 1114.5,-46 1108.5,-52 1102.5,-52"/>
<text text-anchor="middle" x="1074" y="-40" font-family="Microsoft YaHei" font-size="10.00">热成形钢PHSS</text>
<text text-anchor="middle" x="1074" y="-29" font-family="Microsoft YaHei" font-size="10.00">• 门环</text>
<text text-anchor="middle" x="1074" y="-18" font-family="Microsoft YaHei" font-size="10.00">• A/B柱加强板</text>
<text text-anchor="middle" x="1074" y="-7" font-family="Microsoft YaHei" font-size="10.00">• 1500MPa级</text>
</g>
<!-- 高强度钢&#45;&gt;PHSS -->
<g id="edge23" class="edge">
<title>高强度钢&#45;&gt;PHSS</title>
<path fill="none" stroke="#666666" d="M1115.13,-117.65C1108.28,-102.55 1098.14,-80.21 1089.65,-61.49"/>
<polygon fill="#666666" stroke="#666666" points="1092.83,-60.02 1085.51,-52.36 1086.45,-62.92 1092.83,-60.02"/>
</g>
<!-- 第三代 -->
<g id="node25" class="node">
<title>第三代</title>
<path fill="#fadbd8" stroke="black" d="M1188,-46.5C1188,-46.5 1156,-46.5 1156,-46.5 1150,-46.5 1144,-40.5 1144,-34.5 1144,-34.5 1144,-17.5 1144,-17.5 1144,-11.5 1150,-5.5 1156,-5.5 1156,-5.5 1188,-5.5 1188,-5.5 1194,-5.5 1200,-11.5 1200,-17.5 1200,-17.5 1200,-34.5 1200,-34.5 1200,-40.5 1194,-46.5 1188,-46.5"/>
<text text-anchor="middle" x="1172" y="-34.5" font-family="Microsoft YaHei" font-size="10.00">第三代钢</text>
<text text-anchor="middle" x="1172" y="-23.5" font-family="Microsoft YaHei" font-size="10.00">• 中锰钢</text>
<text text-anchor="middle" x="1172" y="-12.5" font-family="Microsoft YaHei" font-size="10.00">• Q&amp;P钢</text>
</g>
<!-- 高强度钢&#45;&gt;第三代 -->
<g id="edge24" class="edge">
<title>高强度钢&#45;&gt;第三代</title>
<path fill="none" stroke="#666666" d="M1130.87,-117.65C1138.45,-100.94 1150.05,-75.38 1159,-55.65"/>
<polygon fill="#666666" stroke="#666666" points="1162.21,-57.05 1163.15,-46.5 1155.83,-54.16 1162.21,-57.05"/>
</g>
<!-- 铸造铝 -->
<g id="node26" class="node">
<title>铸造铝</title>
<path fill="#fadbd8" stroke="black" d="M1324.5,-46.5C1324.5,-46.5 1241.5,-46.5 1241.5,-46.5 1235.5,-46.5 1229.5,-40.5 1229.5,-34.5 1229.5,-34.5 1229.5,-17.5 1229.5,-17.5 1229.5,-11.5 1235.5,-5.5 1241.5,-5.5 1241.5,-5.5 1324.5,-5.5 1324.5,-5.5 1330.5,-5.5 1336.5,-11.5 1336.5,-17.5 1336.5,-17.5 1336.5,-34.5 1336.5,-34.5 1336.5,-40.5 1330.5,-46.5 1324.5,-46.5"/>
<text text-anchor="middle" x="1283" y="-34.5" font-family="Microsoft YaHei" font-size="10.00">铸造铝合金</text>
<text text-anchor="middle" x="1283" y="-23.5" font-family="Microsoft YaHei" font-size="10.00">• 缸体缸盖(A356)</text>
<text text-anchor="middle" x="1283" y="-12.5" font-family="Microsoft YaHei" font-size="10.00">• 变速箱壳体(A380)</text>
</g>
<!-- 铝合金&#45;&gt;铸造铝 -->
<g id="edge25" class="edge">
<title>铝合金&#45;&gt;铸造铝</title>
<path fill="none" stroke="#666666" d="M1453.83,-117.89C1420.09,-99.94 1366.77,-71.57 1328.68,-51.3"/>
<polygon fill="#666666" stroke="#666666" points="1330.3,-48.2 1319.83,-46.59 1327.01,-54.38 1330.3,-48.2"/>
</g>
<!-- 变形铝 -->
<g id="node27" class="node">
<title>变形铝</title>
<path fill="#fadbd8" stroke="black" d="M1466.5,-46.5C1466.5,-46.5 1377.5,-46.5 1377.5,-46.5 1371.5,-46.5 1365.5,-40.5 1365.5,-34.5 1365.5,-34.5 1365.5,-17.5 1365.5,-17.5 1365.5,-11.5 1371.5,-5.5 1377.5,-5.5 1377.5,-5.5 1466.5,-5.5 1466.5,-5.5 1472.5,-5.5 1478.5,-11.5 1478.5,-17.5 1478.5,-17.5 1478.5,-34.5 1478.5,-34.5 1478.5,-40.5 1472.5,-46.5 1466.5,-46.5"/>
<text text-anchor="middle" x="1422" y="-34.5" font-family="Microsoft YaHei" font-size="10.00">变形铝合金</text>
<text text-anchor="middle" x="1422" y="-23.5" font-family="Microsoft YaHei" font-size="10.00">• 车身板(6016/6022)</text>
<text text-anchor="middle" x="1422" y="-12.5" font-family="Microsoft YaHei" font-size="10.00">• 结构件(6061/6082)</text>
</g>
<!-- 铝合金&#45;&gt;变形铝 -->
<g id="edge26" class="edge">
<title>铝合金&#45;&gt;变形铝</title>
<path fill="none" stroke="#666666" d="M1475.72,-117.65C1465.73,-100.79 1450.39,-74.91 1438.66,-55.12"/>
<polygon fill="#666666" stroke="#666666" points="1441.67,-53.32 1433.56,-46.5 1435.64,-56.89 1441.67,-53.32"/>
</g>
<!-- 铝连接 -->
<g id="node28" class="node">
<title>铝连接</title>
<path fill="#fadbd8" stroke="black" d="M1580,-52C1580,-52 1520,-52 1520,-52 1514,-52 1508,-46 1508,-40 1508,-40 1508,-12 1508,-12 1508,-6 1514,0 1520,0 1520,0 1580,0 1580,0 1586,0 1592,-6 1592,-12 1592,-12 1592,-40 1592,-40 1592,-46 1586,-52 1580,-52"/>
<text text-anchor="middle" x="1550" y="-40" font-family="Microsoft YaHei" font-size="10.00">连接技术</text>
<text text-anchor="middle" x="1550" y="-29" font-family="Microsoft YaHei" font-size="10.00">• SPR自冲铆接</text>
<text text-anchor="middle" x="1550" y="-18" font-family="Microsoft YaHei" font-size="10.00">• FDS流钻螺钉</text>
<text text-anchor="middle" x="1550" y="-7" font-family="Microsoft YaHei" font-size="10.00">• 激光焊接</text>
</g>
<!-- 铝合金&#45;&gt;铝连接 -->
<g id="edge27" class="edge">
<title>铝合金&#45;&gt;铝连接</title>
<path fill="none" stroke="#666666" d="M1496.28,-117.65C1505.31,-102.41 1518.71,-79.8 1529.86,-60.98"/>
<polygon fill="#666666" stroke="#666666" points="1532.88,-62.75 1534.97,-52.36 1526.86,-59.18 1532.88,-62.75"/>
</g>
<!-- 镁合金牌号 -->
<g id="node29" class="node">
<title>镁合金牌号</title>
<path fill="#fadbd8" stroke="black" d="M1706.5,-52C1706.5,-52 1633.5,-52 1633.5,-52 1627.5,-52 1621.5,-46 1621.5,-40 1621.5,-40 1621.5,-12 1621.5,-12 1621.5,-6 1627.5,0 1633.5,0 1633.5,0 1706.5,0 1706.5,0 1712.5,0 1718.5,-6 1718.5,-12 1718.5,-12 1718.5,-40 1718.5,-40 1718.5,-46 1712.5,-52 1706.5,-52"/>
<text text-anchor="middle" x="1670" y="-40" font-family="Microsoft YaHei" font-size="10.00">镁合金牌号</text>
<text text-anchor="middle" x="1670" y="-29" font-family="Microsoft YaHei" font-size="10.00">• AZ91D(高强度)</text>
<text text-anchor="middle" x="1670" y="-18" font-family="Microsoft YaHei" font-size="10.00">• AM60B(高延展)</text>
<text text-anchor="middle" x="1670" y="-7" font-family="Microsoft YaHei" font-size="10.00">• AE44(耐热)</text>
</g>
<!-- 镁合金&#45;&gt;镁合金牌号 -->
<g id="edge28" class="edge">
<title>镁合金&#45;&gt;镁合金牌号</title>
<path fill="none" stroke="#666666" d="M1690.98,-117.65C1687.54,-102.76 1682.46,-80.82 1678.16,-62.26"/>
<polygon fill="#666666" stroke="#666666" points="1681.54,-61.32 1675.87,-52.36 1674.72,-62.9 1681.54,-61.32"/>
</g>
<!-- 镁应用 -->
<g id="node30" class="node">
<title>镁应用</title>
<path fill="#fadbd8" stroke="black" d="M1810,-52C1810,-52 1760,-52 1760,-52 1754,-52 1748,-46 1748,-40 1748,-40 1748,-12 1748,-12 1748,-6 1754,0 1760,0 1760,0 1810,0 1810,0 1816,0 1822,-6 1822,-12 1822,-12 1822,-40 1822,-40 1822,-46 1816,-52 1810,-52"/>
<text text-anchor="middle" x="1785" y="-40" font-family="Microsoft YaHei" font-size="10.00">典型应用</text>
<text text-anchor="middle" x="1785" y="-29" font-family="Microsoft YaHei" font-size="10.00">• 变速箱壳体</text>
<text text-anchor="middle" x="1785" y="-18" font-family="Microsoft YaHei" font-size="10.00">• 座椅框架</text>
<text text-anchor="middle" x="1785" y="-7" font-family="Microsoft YaHei" font-size="10.00">• 仪表板横梁</text>
</g>
<!-- 镁合金&#45;&gt;镁应用 -->
<g id="edge29" class="edge">
<title>镁合金&#45;&gt;镁应用</title>
<path fill="none" stroke="#666666" d="M1709.46,-117.65C1722.33,-102.2 1741.51,-79.19 1757.32,-60.21"/>
<polygon fill="#666666" stroke="#666666" points="1760.15,-62.29 1763.86,-52.36 1754.77,-57.81 1760.15,-62.29"/>
</g>
<!-- 铜 -->
<g id="node31" class="node">
<title>铜</title>
<path fill="#fadbd8" stroke="black" d="M1904.5,-52C1904.5,-52 1863.5,-52 1863.5,-52 1857.5,-52 1851.5,-46 1851.5,-40 1851.5,-40 1851.5,-12 1851.5,-12 1851.5,-6 1857.5,0 1863.5,0 1863.5,0 1904.5,0 1904.5,0 1910.5,0 1916.5,-6 1916.5,-12 1916.5,-12 1916.5,-40 1916.5,-40 1916.5,-46 1910.5,-52 1904.5,-52"/>
<text text-anchor="middle" x="1884" y="-40" font-family="Microsoft YaHei" font-size="10.00">铜及铜合金</text>
<text text-anchor="middle" x="1884" y="-29" font-family="Microsoft YaHei" font-size="10.00">• 线束导体</text>
<text text-anchor="middle" x="1884" y="-18" font-family="Microsoft YaHei" font-size="10.00">• 散热器</text>
<text text-anchor="middle" x="1884" y="-7" font-family="Microsoft YaHei" font-size="10.00">• 轴承衬套</text>
</g>
<!-- 有色金属&#45;&gt;铜 -->
<g id="edge30" class="edge">
<title>有色金属&#45;&gt;铜</title>
<path fill="none" stroke="#666666" d="M1862.18,-117.65C1865.76,-102.76 1871.04,-80.82 1875.51,-62.26"/>
<polygon fill="#666666" stroke="#666666" points="1878.96,-62.91 1877.89,-52.36 1872.15,-61.27 1878.96,-62.91"/>
</g>
<!-- 钛 -->
<g id="node32" class="node">
<title>钛</title>
<path fill="#fadbd8" stroke="black" d="M2010.5,-46.5C2010.5,-46.5 1957.5,-46.5 1957.5,-46.5 1951.5,-46.5 1945.5,-40.5 1945.5,-34.5 1945.5,-34.5 1945.5,-17.5 1945.5,-17.5 1945.5,-11.5 1951.5,-5.5 1957.5,-5.5 1957.5,-5.5 2010.5,-5.5 2010.5,-5.5 2016.5,-5.5 2022.5,-11.5 2022.5,-17.5 2022.5,-17.5 2022.5,-34.5 2022.5,-34.5 2022.5,-40.5 2016.5,-46.5 2010.5,-46.5"/>
<text text-anchor="middle" x="1984" y="-34.5" font-family="Microsoft YaHei" font-size="10.00">钛合金</text>
<text text-anchor="middle" x="1984" y="-23.5" font-family="Microsoft YaHei" font-size="10.00">• 排气管</text>
<text text-anchor="middle" x="1984" y="-12.5" font-family="Microsoft YaHei" font-size="10.00">• 连杆/紧固件</text>
</g>
<!-- 有色金属&#45;&gt;钛 -->
<g id="edge31" class="edge">
<title>有色金属&#45;&gt;钛</title>
<path fill="none" stroke="#666666" d="M1877.97,-117.89C1898.29,-100.47 1930.06,-73.23 1953.53,-53.12"/>
<polygon fill="#666666" stroke="#666666" points="1955.83,-55.76 1961.14,-46.59 1951.27,-50.44 1955.83,-55.76"/>
</g>
<!-- 锌镍 -->
<g id="node33" class="node">
<title>锌镍</title>
<path fill="#fadbd8" stroke="black" d="M2136.5,-46.5C2136.5,-46.5 2063.5,-46.5 2063.5,-46.5 2057.5,-46.5 2051.5,-40.5 2051.5,-34.5 2051.5,-34.5 2051.5,-17.5 2051.5,-17.5 2051.5,-11.5 2057.5,-5.5 2063.5,-5.5 2063.5,-5.5 2136.5,-5.5 2136.5,-5.5 2142.5,-5.5 2148.5,-11.5 2148.5,-17.5 2148.5,-17.5 2148.5,-34.5 2148.5,-34.5 2148.5,-40.5 2142.5,-46.5 2136.5,-46.5"/>
<text text-anchor="middle" x="2100" y="-34.5" font-family="Microsoft YaHei" font-size="10.00">锌/镍合金</text>
<text text-anchor="middle" x="2100" y="-23.5" font-family="Microsoft YaHei" font-size="10.00">• 镀锌钢板</text>
<text text-anchor="middle" x="2100" y="-12.5" font-family="Microsoft YaHei" font-size="10.00">• 火花塞/氧传感器</text>
</g>
<!-- 有色金属&#45;&gt;锌镍 -->
<g id="edge32" class="edge">
<title>有色金属&#45;&gt;锌镍</title>
<path fill="none" stroke="#666666" d="M1896.35,-117.89C1936.91,-99.78 2001.21,-71.09 2046.69,-50.79"/>
<polygon fill="#666666" stroke="#666666" points="2048.39,-53.86 2056.1,-46.59 2045.54,-47.47 2048.39,-53.86"/>
</g>
</g>
</svg>
